:version 1.10
:name ASF
:units
  mass 1
  length 1
  angle deg
:documentation
  ASF file generated by Kaydara
:root
  axis xyz
  order  tx ty tz rx ry rz
  position 0 0 0
  orientation 0 0 0
:bonedata
  begin
    id 1
    name SpineDummy
    direction 0.999998 -0.00179978 1.38929e-006
    length 3.60008
    axis 0 0 0 xyz
  end
  begin
    id 2
    name Spine
    direction 0.964365 0.262802 0.0305839
    length 8.13928
    axis 1.33928 -1.75354 15.2838 xyz
    dof rx ry rz
  end
  begin
    id 3
    name Spine1
    direction 0.811168 0.572065 0.12144
    length 7.14954
    axis 2.2224 -6.9761 35.2157 xyz
    dof rx ry rz
  end
  begin
    id 4
    name Neck
    direction 0 0 0
    length 0
    axis 2.2224 -6.9761 35.2157 xyz
    dof rx ry rz
  end
  begin
    id 5
    name HeadDummy
    direction 0.810939 0.572387 0.121455
    length 3.55534
    axis 2.2224 -6.9761 35.2157 xyz
  end
  begin
    id 6
    name Head
    direction 0.998226 -0.000232542 0.0595419
    length 7.35666
    axis -3.03688 -3.41352 -0.0133467 xyz
    dof rx ry rz
  end
  begin
    id 7
    name R_ClavicleDummy
    direction 0.531669 -0.194489 -0.824319
    length 2.49392
    axis 2.2224 -6.9761 35.2157 xyz
  end
  begin
    id 8
    name R_Clavicle
    direction -0.155119 0.0480802 -0.986725
    length 4.485
    axis -54.2764 80.6538 162.779 xyz
    dof rx ry rz
  end
  begin
    id 9
    name R_UpperArm
    direction -0.955567 0.200068 -0.216484
    length 10.1122
    axis -72.9943 12.5026 168.175 xyz
    dof rx ry rz
  end
  begin
    id 10
    name R_Forearm
    direction -0.61433 0.385743 0.688332
    length 9.39148
    axis -117.015 -43.4982 147.875 xyz
    dof rx ry rz
  end
  begin
    id 11
    name R_Hand
    direction -0.699429 0.0170333 0.714499
    length 3.66324
    axis -45.0303 -36.7097 175.478 xyz
    dof rx ry rz
  end
  begin
    id 12
    name L_ClavicleDummy
    direction 0.40287 -0.36502 0.839319
    length 2.49392
    axis 2.2224 -6.9761 35.2157 xyz
  end
  begin
    id 13
    name L_Clavicle
    direction -0.231271 -0.0726419 0.970174
    length 4.485
    axis 18.4357 -75.9711 -162.563 xyz
    dof rx ry rz
  end
  begin
    id 14
    name L_UpperArm
    direction -0.917494 0.144359 0.370629
    length 10.1122
    axis 56.0417 -21.7544 171.058 xyz
    dof rx ry rz
  end
  begin
    id 15
    name L_Forearm
    direction -0.496786 0.615074 -0.612281
    length 9.39148
    axis 89.8094 37.7546 128.927 xyz
    dof rx ry rz
  end
  begin
    id 16
    name L_Hand
    direction -0.409932 0.64962 -0.640274
    length 3.66324
    axis -0.424369 32.133 128.52 xyz
    dof rx ry rz
  end
  begin
    id 17
    name L_ThighDummy
    direction -1.84081e-006 1.87549e-006 1
    length 3.13049
    axis 0 0 0 xyz
  end
  begin
    id 18
    name L_Thigh
    direction -0.947739 0.307978 0.083308
    length 17.9961
    axis 173.219 -4.77873 161.998 xyz
    dof rx ry rz
  end
  begin
    id 19
    name L_Calf
    direction -0.728814 -0.684427 0.0197583
    length 13.3367
    axis 167.331 -1.13214 -136.799 xyz
    dof rx ry rz
  end
  begin
    id 20
    name L_Foot
    direction -0.9028 0.418719 0.0981191
    length 5.8674
    axis 163.436 11.5135 -155.37 xyz
    dof rx ry rz
  end
  begin
    id 21
    name L_Toe0
    direction -0.35341 0.886259 0.299411
    length 4.75286
    axis 169.316 -17.4222 111.74 xyz
    dof rx ry rz
  end
  begin
    id 22
    name R_ThighDummy
    direction 9.32778e-007 -8.82053e-007 -1
    length 3.13049
    axis 0 0 0 xyz
  end
  begin
    id 23
    name R_Thigh
    direction -0.925064 0.37528 -0.0585023
    length 17.9961
    axis -178.698 3.35385 157.919 xyz
    dof rx ry rz
  end
  begin
    id 24
    name R_Calf
    direction -0.68969 -0.718776 -0.0876886
    length 13.3367
    axis -160.504 5.03065 -133.817 xyz
    dof rx ry rz
  end
  begin
    id 25
    name R_Foot
    direction -0.857405 0.418858 -0.299022
    length 5.8674
    axis -161.328 4.38911 -154.413 xyz
    dof rx ry rz
  end
  begin
    id 26
    name R_Toe0
    direction -0.100745 0.952789 -0.286433
    length 4.75286
    axis 171.683 16.6445 96.0359 xyz
    dof rx ry rz
  end
:hierarchy
  begin
    root SpineDummy L_ThighDummy R_ThighDummy
    SpineDummy Spine
    Spine Spine1
    Spine1 Neck
    Neck HeadDummy R_ClavicleDummy L_ClavicleDummy
    HeadDummy Head
    R_ClavicleDummy R_Clavicle
    R_Clavicle R_UpperArm
    R_UpperArm R_Forearm
    R_Forearm R_Hand
    L_ClavicleDummy L_Clavicle
    L_Clavicle L_UpperArm
    L_UpperArm L_Forearm
    L_Forearm L_Hand
    L_ThighDummy L_Thigh
    L_Thigh L_Calf
    L_Calf L_Foot
    L_Foot L_Toe0
    R_ThighDummy R_Thigh
    R_Thigh R_Calf
    R_Calf R_Foot
    R_Foot R_Toe0
  end

:SAMPLES-PER-SECOND 30
:FULLY-SPECIFIED
:DEGREES
205
root  -9.76708 28.2649 -1.12137 -79.647 -6.58369 79.7709
Spine  -17.1728 -23.1198 2.67298
Spine1  -15.1221 47.2868 -4.24594
Neck  3.97569e-016 0 -2.38542e-015
Head  21.1267 -7.26531 12.0932
R_Clavicle  0.42834 -17.8858 2.29337
R_UpperArm  39.0927 -1.62627 57.6113
R_Forearm  19.1816 -29.3591 22.4827
R_Hand  -0.25827 5.59896 -11.6672
L_Clavicle  -0.464477 16.3191 -0.85196
L_UpperArm  15.8173 -10.5821 -21.5594
L_Forearm  1.39742 16.9547 20.6071
L_Hand  -0.685202 4.40746 -7.67619
L_Thigh  7.59332 1.1622 16.3553
L_Calf  5.71616 -1.38402 10.1405
L_Foot  0.947671 5.14288 -1.24041
L_Toe0  0.505156 0.034446 -6.1361
R_Thigh  -1.81176 9.57907 -3.6183
R_Calf  14.7067 -2.02985 -6.20145
R_Foot  -4.61027 -2.13825 27.0808
R_Toe0  -1.56495 -0.263541 -17.1965
206
root  -10.2598 28.4912 -1.25802 -86.4282 -6.98242 77.7804
Spine  -15.5762 -22.4561 1.51947
Spine1  -12.7835 42.5394 -2.08812
Neck  3.97569e-016 0 -2.38542e-015
Head  22.633 -6.62329 10.1522
R_Clavicle  0.427667 -17.1561 2.25779
R_UpperArm  32.3761 3.52791 48.4347
R_Forearm  22.3885 -25.421 21.1177
R_Hand  -0.318676 4.86007 -11.6972
L_Clavicle  -0.545779 18.1774 -1.46863
L_UpperArm  15.6661 -9.71067 -12.4811
L_Forearm  -2.79706 21.8213 27.912
L_Hand  -0.475594 3.28727 -5.98752
L_Thigh  5.73754 -1.70305 16.373
L_Calf  4.15225 -2.35356 17.519
L_Foot  -0.136319 6.00816 -6.4269
L_Toe0  0.505156 0.034446 -6.1361
R_Thigh  -7.56008 8.17352 -3.84094
R_Calf  12.2287 -2.28097 -7.00407
R_Foot  -4.57408 -2.40842 25.9195
R_Toe0  -0.354149 -0.266344 -16.5883
207
root  -10.9402 28.9831 -1.50093 -95.0573 -7.91363 75.4376
Spine  -13.0731 -18.7189 0.10948
Spine1  -11.0656 32.2315 -2.293
Neck  3.97569e-016 0 -2.38542e-015
Head  23.3056 -7.06151 10.6419
R_Clavicle  0.401464 -16.3305 1.76223
R_UpperArm  25.4042 6.13409 38.1427
R_Forearm  23.5483 -21.3751 19.1019
R_Hand  -0.330636 3.98451 -11.0609
L_Clavicle  -0.650004 19.846 -2.37619
L_UpperArm  12.7863 -7.86138 -1.51991
L_Forearm  -5.35694 28.248 34.7587
L_Hand  -0.245133 2.56869 -3.31538
L_Thigh  -0.941424 -4.68542 16.0393
L_Calf  6.26244 -2.58589 19.3996
L_Foot  -1.09908 4.42936 -9.27291
L_Toe0  0.505156 0.034446 -6.1361
R_Thigh  -12.715 6.07036 -2.75211
R_Calf  10.5238 -2.79353 -8.62798
R_Foot  -3.89889 -2.90793 20.2661
R_Toe0  3.79378 -0.571461 -13.6365
208
root  -11.6066 29.4856 -1.85324 -103.818 -9.62593 74.0975
Spine  -10.0781 -12.8017 0.00227292
Spine1  -8.85906 20.2472 -2.92167
Neck  3.97569e-016 0 -2.38542e-015
Head  23.2331 -8.36042 10.6111
R_Clavicle  0.33825 -15.6447 0.75743
R_UpperArm  20.6524 8.82544 28.1508
R_Forearm  20.7138 -18.3857 16.0062
R_Hand  -0.386045 3.80494 -11.4969
L_Clavicle  -0.70744 20.0665 -3.58488
L_UpperArm  -7.20529 -5.27371 8.48581
L_Forearm  6.55136 40.6713 39.8671
L_Hand  -0.0913684 1.78828 -1.31713
L_Thigh  -7.31037 -7.46846 15.5965
L_Calf  11.3988 -2.45408 18.4351
L_Foot  -2.08643 -1.25039 -9.42042
L_Toe0  0.505156 0.034446 -6.1361
R_Thigh  -12.0156 4.16554 0.690551
R_Calf  13.4527 -3.65433 -11.3447
R_Foot  -2.80609 -4.44881 9.57593
R_Toe0  8.63705 -2.00742 -6.12879
209
root  -12.1401 29.7401 -2.33538 -112.111 -12.0922 73.9038
Spine  -6.96434 -7.33662 1.34018
Spine1  -5.96807 9.28727 -2.72275
Neck  3.97569e-016 0 -2.38542e-015
Head  22.5068 -9.4141 9.3508
R_Clavicle  0.264327 -14.1671 0.00759637
R_UpperArm  15.3893 12.3316 17.7047
R_Forearm  17.8627 -16.1423 13.8867
R_Hand  -0.518158 4.26622 -13.2485
L_Clavicle  -0.680091 19.1528 -4.63883
L_UpperArm  -21.6645 -2.29629 16.7787
L_Forearm  19.3958 47.7019 50.9524
L_Hand  -0.0362615 0.683026 -0.615892
L_Thigh  -12.2218 -10.1421 15.0027
L_Calf  14.8081 -2.15167 16.1395
L_Foot  -2.65331 -6.09494 -7.77784
L_Toe0  0.505156 0.034446 -6.1361
R_Thigh  -5.33398 2.53302 4.91735
R_Calf  18.4847 -4.16034 -12.9921
R_Foot  -1.35304 -5.87323 -2.06647
R_Toe0  10.0713 -3.76229 3.79264
210
root  -12.5202 29.5544 -2.95655 -120.868 -14.7719 74.8856
Spine  -3.56445 -2.98829 3.76868
Spine1  -2.70755 -0.734571 -3.20189
Neck  3.97569e-016 0 -2.38542e-015
Head  21.2316 -9.723 8.99879
R_Clavicle  0.215945 -11.1452 0.101141
R_UpperArm  10.6031 15.1286 6.62768
R_Forearm  16.8212 -15.0303 12.8627
R_Hand  -0.661219 4.82393 -15.0039
L_Clavicle  -0.630337 18.289 -5.25489
L_UpperArm  -23.772 0.927188 25.5335
L_Forearm  21.0484 48.0438 59.2182
L_Hand  0.00636009 -0.326283 0.109725
L_Thigh  -16.7191 -11.8927 14.8406
L_Calf  14.6914 -1.6677 12.497
L_Foot  -2.49961 -6.66907 -5.82398
L_Toe0  0.500606 0.0344815 -6.14013
R_Thigh  3.51508 1.94679 6.87539
R_Calf  17.4741 -4.14404 -13.0089
R_Foot  -0.708134 -5.31855 -4.99563
R_Toe0  4.27527 -1.99041 6.96011
211
root  -12.7661 28.9388 -3.68355 -131.13 -16.9583 76.9895
Spine  0.515492 0.675211 6.64625
Spine1  1.26004 -10.5267 -4.73317
Neck  3.97569e-016 0 -2.38542e-015
Head  20.2498 -9.47742 9.62528
R_Clavicle  0.249527 -6.46295 0.925393
R_UpperArm  7.45551 17.1079 -4.61081
R_Forearm  16.9318 -14.8274 12.6775
R_Hand  -0.737114 4.98791 -15.8237
L_Clavicle  -0.575458 17.548 -5.43453
L_UpperArm  -25.4225 4.35068 36.2361
L_Forearm  18.7281 46.4425 61.4078
L_Hand  0.0628314 -0.511767 1.39285
L_Thigh  -18.9236 -12.397 15.5967
L_Calf  9.87879 -0.999056 7.51181
L_Foot  -0.957582 -1.8819 -3.03381
L_Toe0  0.550265 0.0341981 -6.10798
R_Thigh  11.6838 3.34154 6.49129
R_Calf  10.5472 -4.64882 -14.617
R_Foot  -0.722422 -3.39378 -1.79341
R_Toe0  -7.69377 2.37203 -0.624966
